<?xml version="1.0" standalone="no"?>
<!DOCTYPE svg PUBLIC "-//W3C//DTD SVG 20010904//EN"
 "http://www.w3.org/TR/2001/REC-SVG-20010904/DTD/svg10.dtd">
<svg version="1.0" xmlns="http://www.w3.org/2000/svg"
 width="900.000000pt" height="600.000000pt" viewBox="0 0 900.000000 600.000000"
 preserveAspectRatio="xMidYMid meet">

<g transform="translate(0.000000,600.000000) scale(0.100000,-0.100000)"
fill="#000000" stroke="none">
<path d="M0 3000 l0 -3000 360 0 360 0 0 40 c0 33 -3 40 -20 40 -19 0 -20 7
-20 200 0 193 -1 200 -20 200 -18 0 -20 7 -20 80 0 73 -2 80 -20 80 -18 0 -20
7 -20 60 0 55 -2 60 -21 60 -19 0 -21 4 -15 31 3 17 6 44 6 60 0 26 3 29 35
29 34 0 35 1 35 40 l0 40 -40 0 c-39 0 -40 -1 -40 -34 0 -25 -5 -35 -20 -39
-17 -4 -20 0 -20 34 0 32 -3 39 -20 39 -17 0 -20 7 -20 40 0 33 -3 40 -20 40
-17 0 -20 7 -20 40 0 33 3 40 20 40 19 0 20 7 20 120 l0 120 -40 0 -40 0 0
120 c0 113 -1 120 -20 120 -17 0 -20 7 -20 40 0 33 -3 40 -20 40 -18 0 -20 7
-20 80 l0 80 -40 0 -40 0 0 40 c0 33 3 40 20 40 17 0 20 7 20 40 0 33 -3 40
-20 40 -17 0 -20 7 -20 40 0 33 -3 40 -20 40 -17 0 -20 7 -20 40 0 33 -3 40
-20 40 -19 0 -20 7 -20 240 l0 240 -40 0 -40 0 0 40 0 40 40 0 40 0 0 40 c0
33 -3 40 -20 40 -17 0 -20 7 -20 40 l0 40 60 0 60 0 0 40 c0 33 3 40 20 40 17
0 20 7 20 40 0 33 3 40 20 40 17 0 20 7 20 40 0 33 -3 40 -20 40 -18 0 -20 7
-20 80 0 73 2 80 20 80 17 0 20 -7 20 -40 l0 -40 40 0 40 0 0 160 c0 153 1
160 20 160 17 0 20 7 20 40 0 33 3 40 20 40 19 0 20 7 20 160 l0 160 40 0 40
0 0 120 0 120 40 0 40 0 0 80 c0 73 2 80 20 80 13 0 20 7 20 20 0 13 7 20 20
20 18 0 20 7 20 60 l0 60 40 0 40 0 0 80 c0 73 2 80 20 80 17 0 20 7 20 40 0
33 3 40 20 40 17 0 20 -7 20 -40 0 -33 3 -40 20 -40 18 0 20 7 20 60 0 53 2
60 20 60 13 0 20 7 20 20 0 13 7 20 20 20 13 0 20 7 20 20 0 13 7 20 20 20 13
0 20 7 20 20 0 17 -7 20 -40 20 -33 0 -40 3 -40 20 0 13 7 20 20 20 17 0 20 7
20 40 l0 40 40 0 40 0 0 60 c0 53 2 60 20 60 18 0 20 7 20 60 0 53 2 60 20 60
18 0 20 7 20 60 0 53 2 60 20 60 17 0 20 7 20 40 0 33 3 40 20 40 18 0 20 7
20 60 0 53 2 60 20 60 13 0 20 7 20 20 0 13 7 20 20 20 17 0 20 7 20 40 0 33
3 40 20 40 13 0 20 7 20 20 0 13 7 20 20 20 17 0 20 7 20 40 0 33 3 40 20 40
13 0 20 7 20 20 0 13 7 20 20 20 13 0 20 7 20 20 0 17 7 20 40 20 l40 0 0 40
c0 33 3 40 20 40 13 0 20 7 20 20 0 20 -7 20 -800 20 l-800 0 0 -3000z m960
1820 c0 -13 -7 -20 -20 -20 -13 0 -20 7 -20 20 0 13 7 20 20 20 13 0 20 -7 20
-20z m-560 -1260 c0 -33 -3 -40 -20 -40 -17 0 -20 7 -20 40 0 33 3 40 20 40
17 0 20 -7 20 -40z m-160 -560 c0 -33 -3 -40 -20 -40 -17 0 -20 7 -20 40 0 33
3 40 20 40 17 0 20 -7 20 -40z m-162 -437 c-3 -65 -6 -78 -20 -81 -16 -3 -18
6 -18 77 0 75 2 81 20 81 19 0 21 -5 18 -77z"/>
<path d="M7680 5960 l0 -40 40 0 c22 0 40 5 40 10 0 6 18 10 40 10 22 0 40 -4
40 -10 0 -6 47 -10 120 -10 l120 0 0 -40 0 -40 60 0 c53 0 60 -2 60 -20 0 -13
7 -20 20 -20 13 0 20 -7 20 -20 0 -13 7 -20 20 -20 13 0 20 -7 20 -20 0 -13 7
-20 20 -20 13 0 20 -7 20 -20 0 -13 7 -20 20 -20 13 0 20 -7 20 -20 0 -13 7
-20 20 -20 17 0 20 -7 20 -40 0 -33 3 -40 20 -40 13 0 20 -7 20 -20 0 -13 7
-20 20 -20 17 0 20 -7 20 -40 0 -33 3 -40 20 -40 18 0 20 -7 20 -60 0 -53 2
-60 20 -60 18 0 20 -7 20 -60 l0 -60 30 0 30 0 0 -80 c0 -47 4 -80 10 -80 6 0
10 -18 10 -40 0 -33 3 -40 20 -40 18 0 20 -7 20 -80 0 -73 2 -80 20 -80 17 0
20 -7 20 -40 0 -33 3 -40 20 -40 19 0 20 -7 20 -240 0 -233 -1 -240 -20 -240
-19 0 -20 -7 -20 -200 0 -193 -1 -200 -20 -200 -17 0 -20 -7 -20 -40 0 -33 -3
-40 -20 -40 -18 0 -20 -7 -20 -80 0 -73 -2 -80 -20 -80 -19 0 -20 -7 -20 -120
0 -113 -1 -120 -20 -120 -17 0 -20 -7 -20 -40 0 -33 -3 -40 -20 -40 -18 0 -20
-7 -20 -80 0 -73 -2 -80 -20 -80 -13 0 -20 -7 -20 -20 0 -13 -7 -20 -20 -20
-17 0 -20 -7 -20 -40 0 -33 -3 -40 -20 -40 -17 0 -20 -7 -20 -40 0 -33 -3 -40
-20 -40 -13 0 -20 -7 -20 -20 0 -13 -7 -20 -20 -20 -13 0 -20 -7 -20 -20 0
-16 -7 -20 -34 -20 -34 0 -35 -1 -39 -42 l-4 -43 -1 43 -2 42 -40 0 -40 0 0
-60 0 -60 -60 0 c-53 0 -60 -2 -60 -20 0 -19 -7 -20 -100 -20 l-100 0 0 -25 0
-25 -160 0 c-130 0 -160 -3 -160 -14 0 -17 -30 -30 -31 -13 -1 7 -4 1 -8 -13
-4 -14 -15 -26 -25 -28 -17 -4 -17 3 -11 85 9 125 23 187 48 220 19 24 22 40
23 135 1 145 -21 313 -50 392 -25 64 -118 219 -148 244 -14 11 -74 30 -172 54
-22 5 -45 17 -52 27 -7 10 -41 30 -76 46 -35 15 -78 39 -96 53 -18 14 -48 26
-67 27 -19 1 -49 13 -67 27 -18 14 -66 44 -106 68 -41 24 -87 56 -102 72 -16
15 -35 28 -43 28 -33 0 -83 213 -58 244 18 21 61 137 61 163 0 16 8 27 24 33
46 17 63 61 86 222 16 109 4 168 -35 168 -22 0 -23 2 -13 33 6 17 12 73 14
122 1 50 4 92 5 95 6 15 3 70 -4 70 -5 0 -6 4 -3 8 3 5 -1 26 -9 48 -8 21 -14
66 -15 98 0 58 -1 60 -52 111 -45 44 -62 55 -110 64 -31 7 -61 18 -67 24 -5 7
-24 14 -41 15 -17 1 -41 9 -53 17 -17 11 -48 13 -132 10 -77 -3 -124 0 -158
10 -31 9 -53 11 -60 5 -68 -53 -124 -108 -134 -129 -6 -14 -12 -22 -12 -17 -2
15 -40 -25 -56 -58 -9 -16 -18 -48 -22 -70 -3 -23 -11 -46 -18 -52 -7 -8 -10
-47 -9 -115 2 -57 4 -131 5 -164 1 -64 15 -135 27 -135 4 0 13 9 19 19 7 11
29 22 52 26 23 4 42 11 42 16 1 5 2 12 4 17 13 49 16 87 8 105 -16 38 2 89 46
128 22 20 46 36 53 36 7 1 47 9 88 19 41 9 83 17 92 18 9 0 15 3 12 7 -2 4 15
5 38 2 24 -2 59 -6 78 -7 47 -4 101 -26 94 -38 -3 -5 2 -8 11 -6 27 5 42 -27
24 -49 -23 -26 -25 -118 -3 -150 20 -31 11 -38 -55 -48 -43 -6 -107 -32 -99
-40 1 -2 27 1 56 6 29 6 74 9 100 7 38 -2 28 -6 -58 -17 -58 -7 -114 -14 -125
-15 -11 -1 -29 -7 -40 -13 -18 -11 -18 -12 -2 -13 24 0 18 -34 -7 -38 -26 -5
-42 13 -27 32 7 8 8 16 4 19 -16 10 -178 18 -164 9 10 -7 10 -11 1 -17 -6 -4
-14 -5 -17 -2 -3 3 -17 1 -31 -4 -14 -5 -32 -7 -40 -4 -13 5 -12 8 4 20 18 14
17 14 -11 14 -32 -1 -138 -26 -117 -28 6 0 12 -6 12 -12 0 -6 -7 -9 -15 -5 -8
3 -15 1 -15 -4 0 -10 14 -14 38 -11 6 1 12 -6 12 -16 0 -15 -2 -16 -10 -3 -8
12 -10 10 -11 -10 0 -15 -3 -19 -6 -10 -10 27 -43 51 -61 46 -22 -7 -42 -73
-41 -133 l2 -48 7 40 7 40 3 -50 2 -50 14 45 c23 74 23 75 36 62 8 -8 8 -15 0
-25 -9 -10 -8 -32 4 -88 9 -42 14 -100 11 -134 -4 -65 10 -131 47 -210 49
-104 51 -114 29 -135 -27 -25 -45 -104 -46 -199 0 -89 25 -167 73 -221 29 -32
29 -32 10 -4 -23 33 -40 151 -24 162 5 4 18 23 28 42 25 49 51 47 77 -8 14
-29 26 -41 36 -38 8 3 11 1 8 -4 -3 -6 -1 -10 5 -10 6 0 8 -4 5 -10 -4 -6 1
-7 11 -3 14 5 16 3 11 -11 -4 -9 -3 -15 2 -11 5 3 12 -4 16 -15 3 -11 11 -20
16 -20 6 0 7 -4 4 -10 -3 -5 3 -10 14 -10 12 0 21 -4 21 -10 0 -14 -64 -12
-78 2 -8 8 -12 8 -12 1 0 -10 23 -25 45 -28 6 0 9 -6 7 -13 -1 -7 4 -13 10
-14 7 0 18 -2 23 -3 6 -2 19 -4 30 -5 l20 -1 -20 -9 c-19 -7 -18 -8 7 -18 45
-18 104 10 186 86 95 89 157 173 183 247 l14 40 6 -50 6 -50 2 60 c3 74 19 48
20 -32 1 -43 -4 -57 -25 -80 -15 -15 -62 -81 -106 -145 -44 -65 -84 -118 -91
-118 -6 0 -2 7 9 15 14 11 15 14 3 9 -10 -3 -20 -1 -23 4 -4 6 -28 -2 -59 -19
-55 -30 -86 -35 -117 -19 -13 7 -19 6 -24 -5 -3 -9 -20 -15 -43 -16 -34 -1
-35 -2 -13 -9 18 -6 5 -8 -45 -8 -82 1 -124 13 -107 30 21 21 13 32 -8 13 -18
-16 -23 -17 -46 -4 -35 18 -85 81 -120 149 -22 44 -27 68 -27 120 0 36 5 82
11 103 12 43 14 44 -60 -16 -37 -28 -141 -62 -243 -78 -33 -5 -71 -17 -85 -27
-14 -10 -61 -31 -105 -47 -44 -15 -111 -43 -150 -62 -38 -18 -76 -33 -83 -33
-31 0 -154 -174 -226 -320 -74 -149 -170 -402 -206 -542 -12 -46 -33 -118 -46
-160 -24 -80 -34 -185 -21 -228 6 -21 -2 -40 -49 -110 -56 -84 -56 -85 -50
-143 3 -32 1 -78 -4 -102 -7 -32 -6 -53 4 -83 9 -25 12 -61 9 -105 -4 -43 -2
-72 6 -81 16 -19 40 -116 29 -116 -13 0 2 -76 23 -118 11 -20 19 -42 19 -49 0
-7 4 -21 9 -31 5 -9 14 -43 20 -75 6 -32 17 -65 25 -73 22 -22 28 -51 16 -75
-13 -23 -3 -21 30 7 17 14 121 46 128 39 3 -2 -1 -6 -9 -9 -91 -27 -166 -66
-176 -92 -8 -20 23 -149 44 -180 8 -13 13 -33 10 -45 -4 -14 -2 -19 8 -16 8 4
11 -1 8 -13 -3 -11 4 -24 18 -34 30 -20 40 -20 32 1 -4 10 -2 14 5 9 6 -3 14
-1 18 5 4 8 3 9 -4 5 -7 -4 -12 -2 -12 4 0 22 351 222 366 208 7 -8 12 -37 18
-118 10 -112 11 -115 74 -143 134 -60 337 -135 438 -162 81 -22 77 -21 95 -29
9 -4 27 -8 40 -10 13 -2 31 -6 39 -9 26 -10 133 -34 205 -46 39 -7 86 -15 105
-19 47 -9 446 4 535 18 192 30 334 64 429 104 33 14 37 14 26 1 -7 -8 -19 -15
-27 -15 -8 0 -11 -5 -7 -12 4 -6 3 -8 -4 -4 -12 7 -123 -25 -117 -34 3 -4 -7
-5 -20 -2 -14 2 -25 0 -25 -7 0 -5 -7 -8 -15 -5 -8 4 -15 2 -15 -2 0 -5 -19
-10 -41 -11 -23 0 -44 -5 -48 -11 -3 -5 -30 -9 -60 -9 -33 -1 -57 -6 -63 -15
-7 -10 -11 -10 -15 -1 -5 13 -46 9 -68 -7 -5 -3 -34 -5 -62 -4 -34 1 -53 -3
-53 -10 0 -8 -2 -8 -8 1 -5 8 -60 11 -177 12 -226 1 -255 3 -255 12 0 4 -22 6
-50 4 -35 -3 -53 0 -65 11 -8 8 -15 13 -15 10 0 -3 -11 -1 -25 4 -18 7 -25 6
-25 -3 -1 -7 -6 -5 -14 5 -7 10 -16 15 -19 12 -3 -4 -14 -3 -24 1 -10 4 -28 7
-39 6 -12 -1 -28 4 -35 11 -15 14 -24 17 -70 22 -16 2 -36 9 -44 16 -8 7 -15
9 -15 5 0 -4 -8 -1 -17 6 -9 8 -14 9 -10 2 10 -16 -29 -5 -43 12 -6 8 -18 11
-26 8 -8 -3 -14 0 -14 6 0 6 -6 8 -14 5 -8 -3 -29 3 -48 12 -18 10 -39 17 -46
16 -7 -2 -15 4 -18 13 -4 9 -13 14 -20 11 -8 -3 -14 -1 -14 5 0 6 -4 7 -10 4
-5 -3 -10 -2 -10 4 0 6 -7 7 -17 4 -12 -5 -14 -3 -8 7 6 10 4 12 -10 6 -11 -4
-25 0 -36 10 -11 10 -19 14 -19 10 0 -4 -12 2 -26 13 -36 28 -45 26 -38 -9 4
-19 1 -36 -7 -47 -10 -11 -10 -14 -1 -9 7 4 12 2 12 -7 0 -15 -32 -47 -65 -65
-18 -10 -18 -11 -2 -12 10 0 15 -5 12 -10 -4 -6 -1 -18 6 -26 10 -13 10 -17
-2 -25 -10 -6 -15 -3 -17 11 -2 11 -10 20 -19 20 -10 0 -13 6 -9 16 5 12 1 14
-17 8 -30 -9 -76 -33 -109 -55 -26 -19 -26 -19 -20 3 5 22 4 22 -34 -7 -21
-16 -45 -35 -52 -42 -17 -17 -33 -17 -31 0 3 25 -1 38 -11 32 -5 -3 -10 3 -10
14 0 26 -21 71 -32 71 -5 0 -7 -4 -4 -9 3 -4 -6 -6 -19 -3 -25 4 -35 -12 -12
-21 9 -4 9 -6 0 -6 -21 -2 -15 -28 8 -34 12 -3 18 -10 15 -16 -4 -6 -13 -8
-21 -4 -10 3 -15 -2 -15 -16 0 -14 -6 -21 -20 -21 -13 0 -20 -7 -20 -20 0 -13
7 -20 20 -20 17 0 20 -7 20 -40 l0 -40 -60 0 -60 0 0 -40 c0 -33 -3 -40 -20
-40 -17 0 -20 -7 -20 -40 0 -33 -3 -40 -20 -40 -13 0 -20 -7 -20 -20 0 -13 -7
-20 -20 -20 -13 0 -20 -7 -20 -20 0 -17 7 -20 40 -20 33 0 40 -3 40 -20 0 -13
-7 -20 -20 -20 -13 0 -20 -7 -20 -20 0 -17 -7 -20 -40 -20 -33 0 -40 -3 -40
-20 0 -13 -7 -20 -20 -20 -18 0 -20 -7 -20 -60 l0 -60 -40 0 -40 0 0 -40 0
-40 2420 0 2420 0 0 3000 0 3000 -580 0 c-573 0 -580 0 -580 -20 0 -17 -7 -20
-40 -20 -33 0 -40 3 -40 20 0 17 -7 20 -40 20 l-40 0 0 -40z m-1265 -1001 c11
-17 -1 -21 -15 -4 -8 9 -8 15 -2 15 6 0 14 -5 17 -11z m-612 -19 c-3 -11 -12
-20 -19 -20 -12 0 -12 4 -2 20 7 11 16 20 19 20 4 0 5 -9 2 -20z m733 -67
c-10 -10 -19 5 -10 18 6 11 8 11 12 0 2 -7 1 -15 -2 -18z m21 -5 c-3 -7 -5 -2
-5 12 0 14 2 19 5 13 2 -7 2 -19 0 -25z m-354 7 c-3 -9 -8 -14 -10 -11 -3 3
-2 9 2 15 9 16 15 13 8 -4z m-408 -15 c-10 -31 15 -78 37 -72 10 2 20 -2 24
-11 9 -24 84 -30 138 -12 27 9 51 14 54 10 3 -3 0 -20 -7 -38 -7 -18 -14 -38
-15 -46 -6 -32 -44 -48 -133 -55 -66 -5 -91 -11 -101 -24 -13 -16 -13 -15 -10
4 2 11 -2 27 -8 35 -16 19 -37 89 -30 96 3 4 6 1 6 -5 0 -19 27 -14 33 6 2 9
8 24 11 33 4 9 -3 27 -18 44 -19 22 -22 32 -14 42 17 21 40 16 33 -7z m158 -7
c-7 -2 -21 -2 -30 0 -10 3 -4 5 12 5 17 0 24 -2 18 -5z m380 0 c-7 -2 -21 -2
-30 0 -10 3 -4 5 12 5 17 0 24 -2 18 -5z m176 -65 c-3 -110 -45 -152 -141
-141 -60 7 -94 21 -122 52 -10 11 -22 19 -25 16 -4 -2 -12 5 -19 16 -7 10 -8
19 -3 19 5 0 11 -5 13 -11 3 -9 11 -8 28 2 14 8 52 14 85 15 33 0 69 3 80 5
18 4 20 -1 18 -38 -2 -37 1 -43 18 -43 26 0 58 70 59 128 0 23 2 42 5 42 3 0
5 -28 4 -62z m31 58 c0 -3 -4 -8 -10 -11 -5 -3 -10 -1 -10 4 0 6 5 11 10 11 6
0 10 -2 10 -4z m-838 -23 c18 -16 25 -43 10 -43 -4 0 -16 14 -25 30 -20 33
-13 39 15 13z m454 -68 c0 -33 4 -68 8 -77 12 -25 -38 -72 -70 -65 -14 2 -24
-1 -24 -7 0 -6 -4 -5 -9 3 -8 12 -15 13 -35 3 -35 -16 -44 3 -18 36 23 29 88
163 85 173 -1 3 12 3 30 0 32 -7 32 -8 33 -66z m-195 41 c8 4 9 3 5 -4 -10
-17 -33 -15 -40 4 -5 14 -4 15 8 5 8 -7 21 -9 27 -5z m363 5 c7 -11 -14 -20
-32 -13 -11 4 -11 6 0 13 17 11 26 11 32 0z m-97 -147 c3 -8 1 -20 -6 -27 -13
-13 -16 -10 -25 21 -6 16 -3 22 9 22 8 0 18 -7 22 -16z m363 -38 c0 -20 -33
-126 -39 -126 -4 0 -2 39 3 86 8 75 11 84 23 68 7 -10 13 -22 13 -28z m-221 8
c20 -4 31 -12 31 -23 0 -17 -36 -69 -42 -61 -2 3 -19 24 -37 48 l-33 42 25 0
c13 0 39 -3 56 -6z m-455 -13 c3 -5 -8 -26 -24 -47 -22 -27 -27 -40 -18 -45
16 -10 12 -138 -5 -155 -4 -4 -7 0 -7 9 0 8 -9 19 -20 22 -23 7 -44 41 -35 55
3 6 -2 11 -12 11 -15 1 -15 2 -2 6 10 2 19 13 22 24 6 21 -13 79 -25 79 -4 0
-8 5 -8 10 0 6 7 10 16 10 9 0 12 5 8 12 -4 7 -3 8 4 4 7 -4 20 -2 29 3 22 13
70 14 77 2z m96 -41 c0 -4 -12 -12 -26 -18 -18 -9 -23 -9 -18 -1 4 8 0 9 -15
4 -29 -9 -26 9 6 35 26 20 28 20 40 4 7 -10 13 -21 13 -24z m295 9 c10 -16 -1
-22 -26 -14 -17 6 -19 9 -8 16 19 12 26 11 34 -2z m-295 -69 c-28 -8 -35 -6
-26 8 3 6 16 7 29 4 22 -6 22 -6 -3 -12z m120 0 c0 -5 -12 -10 -27 -9 -25 0
-26 1 -8 9 27 12 35 12 35 0z m264 -46 c9 -24 -16 -74 -37 -74 -19 0 -18 7 4
68 10 26 24 29 33 6z m-237 -18 c3 -3 0 -6 -8 -7 -8 -1 -29 -2 -47 -4 -18 -1
-34 1 -37 5 -3 5 -14 6 -25 3 -11 -3 -20 0 -20 6 0 11 125 9 137 -3z m38 4 c3
-5 2 -10 -4 -10 -5 0 -13 5 -16 10 -3 6 -2 10 4 10 5 0 13 -4 16 -10z m-181
-15 c3 -9 16 -15 28 -14 13 1 54 1 93 1 68 -2 69 -2 45 -19 -37 -26 -117 -23
-163 5 -20 13 -35 28 -31 33 8 14 21 11 28 -6z m-54 -14 c17 -32 89 -53 169
-49 44 2 70 -1 68 -7 -2 -5 -39 -11 -83 -11 -79 -1 -140 -16 -130 -33 13 -21
65 -33 96 -22 27 9 30 8 28 -7 -2 -9 2 -16 8 -15 7 1 14 -7 17 -18 4 -15 2
-19 -9 -15 -8 3 -14 0 -14 -7 0 -8 -4 -6 -10 3 -7 11 -10 11 -10 2 0 -7 -4
-10 -10 -7 -5 3 -10 2 -10 -2 0 -12 -71 -10 -90 2 -8 5 -19 10 -25 10 -5 0
-11 10 -13 23 -2 12 -7 22 -11 22 -4 0 -13 18 -20 39 -10 34 -9 45 6 75 21 41
28 44 43 17z m360 -31 c0 -10 -5 -22 -10 -25 -6 -4 -8 -10 -5 -15 3 -4 -2 -13
-10 -20 -14 -12 -14 3 0 68 6 26 25 20 25 -8z m-30 -91 c0 -5 -7 -9 -15 -9 -8
0 -15 -9 -15 -20 0 -22 -38 -37 -67 -26 -9 4 -20 1 -25 -6 -10 -16 -28 6 -28
36 0 14 5 17 26 13 14 -2 37 1 50 8 28 14 74 17 74 4z m237 -361 c-3 -7 -5 -2
-5 12 0 14 2 19 5 13 2 -7 2 -19 0 -25z m-41 -90 c-19 -26 -21 -11 -4 29 9 22
12 24 15 11 3 -10 -3 -28 -11 -40z m-1086 -284 c-41 -170 -103 -381 -108 -365
-2 6 3 42 12 79 23 97 34 172 27 172 -4 0 -12 -5 -18 -11 -8 -8 -63 -4 -63 5
0 1 14 29 31 62 17 32 32 67 34 76 7 35 37 69 56 63 13 -4 22 2 34 25 9 18 19
30 21 27 3 -2 -9 -62 -26 -133z m-185 96 c-3 -5 2 -10 12 -11 16 0 16 -1 -2
-9 -13 -6 -15 -9 -5 -9 9 -1 11 -4 5 -9 -6 -4 -11 -16 -10 -27 0 -11 -7 -25
-15 -32 -13 -10 -11 -11 8 -6 18 4 21 2 15 -12 -3 -10 -2 -16 3 -13 5 4 10
-14 12 -38 3 -45 -2 -51 -28 -34 -11 7 -12 12 -4 18 9 5 8 10 -1 19 -17 16
-65 -19 -60 -45 1 -9 -4 -29 -11 -44 -8 -15 -15 -37 -15 -50 -1 -18 -2 -19 -6
-5 -9 35 59 269 89 305 12 14 22 16 13 2z m1595 -255 c-20 -92 -37 -142 -45
-133 -2 2 2 22 10 43 8 22 14 48 15 58 0 22 32 138 37 134 2 -2 -6 -48 -17
-102z m215 82 c12 -18 13 -34 5 -77 -15 -91 -22 -120 -31 -125 -17 -11 -20 19
-9 86 7 40 8 75 3 82 -7 11 -8 22 -4 50 2 15 21 6 36 -16z m-1841 -259 c32 -6
60 -17 62 -23 3 -7 -1 -28 -9 -46 l-15 -34 5 36 5 36 -62 12 c-66 13 -78 9
-81 -29 0 -8 -3 -10 -5 -4 -7 17 14 64 29 64 8 0 40 -5 71 -12z m1608 -10 c-7
-7 -12 -8 -12 -2 0 14 12 26 19 19 2 -3 -1 -11 -7 -17z m-1414 -264 c20 -17
51 -39 67 -49 17 -10 84 -71 150 -135 66 -64 138 -125 160 -136 46 -22 59 -62
29 -95 -9 -10 -14 -19 -9 -19 4 0 2 -7 -5 -15 -9 -11 -15 -13 -20 -5 -4 7 -13
-2 -21 -21 -7 -18 -21 -41 -31 -51 -10 -10 -16 -23 -14 -27 3 -5 -8 -11 -25
-15 -46 -9 -71 -7 -64 4 3 6 2 10 -2 10 -5 0 -29 18 -53 40 -24 22 -40 40 -34
40 5 0 15 -5 22 -12 8 -8 12 -9 12 -1 0 6 12 16 28 22 l27 11 -30 -6 c-40 -8
-184 -6 -197 2 -7 4 -8 2 -4 -4 4 -8 -1 -13 -13 -13 -12 -1 -27 -2 -33 -3 -7
-1 -16 -5 -20 -11 -4 -5 -13 -10 -20 -11 -33 -3 -38 -5 -38 -20 0 -12 12 -15
68 -14 37 1 85 -1 106 -6 30 -5 37 -4 31 5 -6 10 -3 11 13 2 12 -6 25 -11 29
-10 18 3 33 -1 33 -10 0 -9 -227 -4 -292 7 -40 7 -67 32 -34 32 9 0 16 7 16
15 0 8 11 17 25 21 14 3 25 9 25 14 0 4 10 12 23 18 19 9 13 11 -35 11 -33 1
-58 -3 -58 -9 0 -5 5 -10 11 -10 8 0 8 -4 -1 -14 -8 -11 -18 -12 -36 -5 -14 5
-35 9 -47 9 -18 0 -19 -2 -7 -10 18 -11 8 -23 -14 -14 -19 7 -21 30 -3 38 6 3
-3 4 -22 1 -19 -2 -43 1 -53 6 -13 7 -18 6 -18 -2 0 -7 -3 -9 -6 -6 -4 4 -1
13 6 22 15 18 63 19 124 3 40 -11 47 -10 66 7 18 16 26 17 72 7 28 -7 53 -10
56 -7 3 3 -2 5 -12 5 -9 0 -19 6 -22 13 -3 8 -10 14 -17 14 -34 2 -123 25
-131 33 -6 6 -21 10 -35 10 -33 1 -63 23 -56 42 8 19 58 37 89 31 15 -3 26 -1
26 5 0 6 19 15 41 19 l42 8 -29 15 c-16 8 -35 19 -43 24 -13 10 -35 13 -131
18 -25 2 -51 8 -57 15 -7 6 -22 9 -33 6 -12 -3 -22 0 -25 9 -4 9 -18 12 -45
10 -25 -3 -40 0 -40 7 0 6 -16 11 -35 11 -20 0 -35 5 -35 12 0 7 -5 5 -12 -5
-7 -9 -22 -15 -33 -12 -11 2 -26 4 -32 4 -18 1 -16 36 3 52 13 10 41 11 157 1
78 -7 174 -19 212 -27 39 -8 122 -18 185 -22 107 -6 114 -5 98 10 -9 10 -21
17 -26 17 -6 0 -21 13 -34 28 -13 16 -29 27 -36 24 -15 -5 -121 28 -128 40
-16 26 7 33 110 33 105 0 108 -1 144 -31z m-208 -239 c0 -5 -5 -3 -10 5 -5 8
-10 20 -10 25 0 6 5 3 10 -5 5 -8 10 -19 10 -25z m-180 -39 c0 -2 -7 -7 -16
-10 -8 -3 -12 -2 -9 4 6 10 25 14 25 6z m40 -66 c13 -8 13 -10 -2 -10 -9 0
-20 5 -23 10 -8 13 5 13 25 0z m1115 -87 c44 -13 95 -31 113 -39 18 -7 39 -14
47 -14 8 0 26 -10 40 -22 22 -20 28 -38 40 -122 22 -147 23 -144 -44 -210 -57
-56 -61 -58 -141 -72 -91 -16 -120 -28 -120 -49 0 -7 -9 -16 -20 -20 -29 -9
-61 -55 -55 -79 3 -12 2 -15 -1 -8 -3 6 -20 13 -37 13 -31 2 -31 2 -4 6 25 4
40 23 17 23 -5 0 -10 6 -10 14 0 7 -8 24 -18 37 -10 13 -28 40 -40 60 l-22 36
46 -8 c25 -5 67 -15 94 -23 l49 -14 3 79 c2 43 -1 94 -5 112 -5 17 -14 61 -20
97 -6 36 -13 55 -15 42 -2 -12 -7 -20 -12 -17 -5 3 -6 13 -3 22 5 13 2 15 -11
10 -36 -14 -107 102 -90 147 8 21 16 20 37 -4 18 -21 9 -28 -11 -8 -9 9 -12 9
-12 1 0 -7 15 -17 34 -24 19 -7 40 -24 46 -38 8 -17 14 -21 17 -13 3 7 -5 24
-18 38 -12 13 -19 24 -14 24 5 0 0 6 -10 14 -17 12 -17 16 -6 30 16 19 33 17
156 -21z m-1017 -125 c26 -26 13 -37 -39 -33 -59 5 -62 6 -53 29 7 19 74 22
92 4z m452 -2 c0 -2 -7 -6 -15 -10 -8 -3 -15 -1 -15 4 0 6 7 10 15 10 8 0 15
-2 15 -4z m855 -10 c27 -19 37 -88 16 -109 -5 -5 -7 -15 -5 -21 3 -7 1 -23 -5
-37 -7 -19 -9 -12 -9 38 -1 33 -8 78 -16 98 -9 21 -16 39 -16 41 0 8 17 3 35
-10z m-1197 -7 c26 0 26 -1 5 -11 -25 -12 -77 -2 -67 13 3 6 13 8 21 5 8 -3
27 -6 41 -7z m217 -9 c3 -5 1 -10 -4 -10 -6 0 -11 5 -11 10 0 6 2 10 4 10 3 0
8 -4 11 -10z m-100 -9 c-14 -14 -73 -26 -60 -13 6 6 21 12 35 15 14 2 27 5 30
6 2 0 0 -3 -5 -8z m1218 -9 c48 -53 61 -205 26 -297 -12 -32 -17 -39 -14 -20
3 17 7 48 10 70 3 22 8 54 11 72 3 18 -1 45 -9 60 -8 15 -17 45 -21 66 -4 21
-14 41 -22 44 -15 6 -20 23 -6 23 5 0 16 -8 25 -18z m312 -6 c52 -24 112 -83
140 -135 15 -30 23 -168 12 -216 -3 -12 -8 -47 -12 -78 -4 -32 -10 -55 -13
-52 -9 9 -8 85 0 85 4 0 6 16 4 35 -1 20 2 35 8 35 7 0 8 3 1 8 -14 10 -19 46
-6 37 6 -3 11 -1 11 4 0 6 -3 11 -8 11 -4 0 -8 14 -8 30 -1 17 3 30 10 30 7 0
6 4 -2 9 -8 4 -13 10 -11 12 3 6 -39 82 -58 104 -24 27 -73 61 -101 70 -23 7
-23 6 5 -36 26 -40 28 -50 30 -153 2 -120 -5 -196 -18 -196 -4 0 -6 10 -3 23
3 12 5 70 5 130 1 134 -17 194 -69 237 l-37 30 35 0 c19 0 58 -11 85 -24z
m-870 -24 c-1 -1 -12 -4 -23 -7 -18 -3 -20 -1 -10 14 9 14 14 16 24 7 6 -6 11
-12 9 -14z m-345 -2 c0 -13 -5 -18 -15 -14 -16 7 -19 17 -8 27 12 13 23 7 23
-13z m1060 10 c12 -8 12 -10 -5 -10 -11 0 -27 5 -35 10 -12 8 -12 10 5 10 11
0 27 -5 35 -10z m308 -15 c26 -22 60 -85 46 -85 -2 0 5 -19 17 -42 36 -70 79
-209 84 -268 2 -30 2 -44 -1 -30 -6 31 -31 103 -51 148 -8 18 -17 45 -19 60
-6 33 -30 88 -56 125 -11 15 -16 27 -11 27 4 0 3 4 -2 8 -13 8 -55 67 -55 76
0 13 20 5 48 -19z m167 -22 c62 -27 108 -63 127 -98 6 -11 -6 -4 -28 16 -45
42 -104 75 -104 59 0 -16 -55 -8 -56 8 -1 6 -2 17 -3 23 0 6 -16 10 -33 9 -46
-3 -56 0 -33 9 28 11 60 5 130 -26z m-691 -75 c-9 -24 -19 -60 -21 -81 -3 -20
-9 -40 -14 -42 -10 -7 -6 41 11 115 7 30 13 69 12 85 l0 30 14 -32 c12 -29 12
-38 -2 -75z m-480 68 c-6 -16 -24 -23 -24 -8 0 10 22 33 27 28 2 -2 1 -11 -3
-20z m-904 -35 c0 -22 -6 -66 -14 -98 -8 -32 -18 -85 -21 -119 l-7 -60 31 2
c17 1 29 -1 26 -6 -2 -4 11 -16 30 -26 19 -10 35 -25 35 -32 0 -9 -18 -3 -56
18 -30 18 -58 29 -62 25 -4 -4 -7 -52 -7 -108 0 -85 -4 -109 -21 -142 l-22
-41 29 -32 c16 -18 29 -42 28 -55 0 -21 -1 -21 -12 -3 -7 10 -21 30 -32 44
l-21 24 -11 -25 c-10 -21 -8 -27 14 -48 59 -57 77 -79 78 -98 1 -11 -2 -18 -7
-15 -4 3 -8 10 -8 15 0 13 -69 79 -82 79 -5 0 -6 6 -3 13 4 6 -1 3 -9 -7 -9
-11 -16 -29 -17 -40 0 -15 -2 -17 -6 -6 -3 8 -12 22 -20 32 -12 13 -12 27 -4
72 7 39 7 65 0 84 -8 19 -7 37 2 65 9 28 9 43 1 62 -9 19 -8 26 2 32 23 14 36
50 36 103 0 49 17 97 46 131 17 19 64 151 64 179 0 11 5 20 10 20 6 0 10 -18
10 -39z m1640 29 c4 0 10 -13 13 -29 3 -16 9 -40 13 -55 5 -23 3 -26 -16 -23
-37 6 -54 47 -20 47 11 0 20 5 20 10 0 10 -3 11 -32 14 -7 0 -15 12 -16 25 -3
19 0 22 13 17 9 -3 20 -6 25 -6z m-1523 -46 c40 -15 70 -31 67 -35 -3 -5 -11
-6 -17 -2 -7 4 -23 9 -37 11 -29 4 -110 38 -110 46 0 11 26 6 97 -20z m1454
-83 c0 -38 -3 -82 -6 -97 -14 -63 -40 -124 -52 -124 -17 0 -17 15 1 30 8 6 12
19 9 27 -4 9 -2 14 3 11 5 -4 9 4 10 15 0 12 4 42 9 67 5 25 8 74 8 109 0 44
3 58 9 47 5 -9 9 -48 9 -85z m559 84 c7 -8 8 -15 2 -15 -5 0 -15 7 -22 15 -7
8 -8 15 -2 15 5 0 15 -7 22 -15z m-2830 -35 c-20 -13 -60 -13 -60 0 0 6 17 10
38 10 27 0 33 -3 22 -10z m2801 -81 c23 -66 24 -96 2 -49 -9 19 -17 38 -18 43
-2 4 -4 10 -5 15 -1 4 -2 10 -1 15 0 4 -4 7 -11 7 -6 0 -9 3 -5 6 3 4 0 13 -8
21 -8 8 -15 20 -15 26 0 26 44 -35 61 -84z m-1691 31 c63 -5 160 -12 215 -16
101 -6 138 -17 91 -26 -14 -3 -26 -2 -26 2 0 4 -28 7 -62 8 -35 0 -63 1 -63 2
0 2 -16 4 -35 5 -19 2 -59 5 -87 8 -34 4 -53 2 -53 -5 0 -7 -4 -7 -12 -1 -7 6
-40 13 -72 16 -32 3 -63 10 -69 16 -7 7 1 9 24 6 19 -3 86 -9 149 -15z m-971
-36 c2 -2 -13 -4 -35 -4 -21 -1 -68 -7 -103 -14 -56 -12 -62 -12 -48 1 8 8 30
15 49 15 19 0 41 4 49 9 12 8 77 2 88 -7z m737 -25 c22 -10 45 -19 52 -19 6 0
13 -4 16 -9 6 -10 -66 4 -93 18 -9 5 -33 11 -53 15 -21 4 -38 11 -38 17 0 14
66 1 116 -22z m1482 -2 c19 -12 16 -51 -4 -43 -9 3 -20 6 -25 6 -5 0 -9 11 -9
24 0 24 13 28 38 13z m-2118 -17 c11 -7 6 -10 -20 -10 -19 0 -66 -3 -105 -5
l-70 -5 40 14 c47 16 134 20 155 6z m718 -66 c45 -14 82 -27 82 -30 0 -7 -65
3 -115 16 -84 23 -105 28 -105 23 0 -2 -7 2 -15 11 -8 8 -15 17 -15 19 0 7 71
-10 168 -39z m-448 27 c0 -9 -41 -23 -49 -16 -3 4 28 20 47 24 1 1 2 -3 2 -8z
m685 -21 c3 -5 -1 -10 -9 -10 -9 0 -16 5 -16 10 0 6 4 10 9 10 6 0 13 -4 16
-10z m1165 -31 c0 -23 -3 -26 -25 -21 -15 2 -25 11 -25 21 0 23 5 27 30 27 15
0 20 -7 20 -27z m300 -29 c0 -22 -3 -40 -8 -40 -4 0 -6 18 -4 40 2 22 6 40 8
40 2 0 4 -18 4 -40z m-1163 24 c-3 -3 -12 -4 -19 -1 -8 3 -5 6 6 6 11 1 17 -2
13 -5z m-1091 -36 c2 -3 -53 -8 -123 -12 -238 -12 -298 -18 -311 -28 -7 -6
-15 -9 -17 -6 -10 9 27 32 54 34 83 4 226 16 229 19 5 5 162 -2 168 -7z m979
-17 c31 -6 20 -8 -47 -7 -49 0 -88 4 -88 8 0 4 -19 9 -42 11 -24 2 -2 2 47 0
50 -3 108 -8 130 -12z m110 -11 c3 -5 2 -10 -4 -10 -5 0 -13 5 -16 10 -3 6 -2
10 4 10 5 0 13 -4 16 -10z m716 -21 c-9 -22 -10 -22 -10 -3 -1 11 2 24 6 27
12 12 14 0 4 -24z m220 -69 c-8 -20 -9 -16 -6 25 5 74 8 85 12 40 2 -23 -1
-52 -6 -65z m-1626 80 c3 -5 1 -10 -4 -10 -6 0 -11 5 -11 10 0 6 2 10 4 10 3
0 8 -4 11 -10z m903 3 c-10 -2 -28 -2 -40 0 -13 2 -5 4 17 4 22 1 32 -1 23 -4z
m-1308 -53 c0 -13 -7 -20 -20 -20 -19 0 -27 20 -13 33 13 14 33 6 33 -13z m67
13 c-4 -3 -2 -12 4 -20 9 -10 7 -13 -8 -13 -10 0 -26 9 -36 20 -16 19 -16 20
15 20 17 0 28 -3 25 -7z m253 -6 c0 -5 5 -5 10 -2 6 3 10 -1 10 -9 0 -15 4
-18 33 -20 6 -1 21 -9 31 -18 11 -10 27 -18 37 -18 22 0 38 -21 36 -48 -2 -33
-15 -26 -20 11 -4 29 -5 30 -12 9 -10 -30 -41 -25 -37 5 2 14 -4 26 -17 32
-26 14 -31 14 -31 -4 0 -20 -26 -19 -48 3 -9 9 -25 16 -34 14 -14 -3 -17 3
-15 26 2 25 6 29 29 28 16 -1 28 -5 28 -9z m-432 -10 c20 -13 14 -29 -10 -25
-13 2 -24 11 -26 20 -3 17 13 19 36 5z m730 -16 c63 -16 116 -32 119 -35 13
-13 -6 -16 -32 -6 -15 6 -44 13 -64 16 -20 3 -54 10 -76 16 -22 6 -46 11 -53
12 -7 1 -18 8 -24 14 -18 18 2 15 130 -17z m-908 4 c0 -21 -30 -31 -41 -14
-14 23 -11 29 16 29 16 0 25 -6 25 -15z m110 0 c0 -9 -9 -15 -25 -15 -16 0
-25 6 -25 15 0 9 9 15 25 15 16 0 25 -6 25 -15z m-177 -15 c-6 -22 -18 -26
-28 -10 -8 13 3 30 20 30 8 0 11 -7 8 -20z m-46 -42 c-3 -8 -6 -5 -6 6 -1 11
2 17 5 13 3 -3 4 -12 1 -19z m285 -17 c4 12 8 11 23 -1 11 -9 16 -10 11 -2 -8
13 14 16 52 6 34 -10 26 -19 -15 -19 -21 0 -67 -4 -103 -8 -50 -5 -57 -4 -33
3 18 6 35 15 39 21 4 8 9 8 14 -1 6 -9 9 -9 12 1z m1057 -14 c0 -9 -2 -8 -6 1
-2 6 -10 9 -15 6 -7 -4 -8 -2 -4 5 9 13 26 5 25 -12z m71 6 c0 -5 -13 -8 -30
-9 -16 -1 -27 3 -24 7 6 11 54 12 54 2z m-460 -14 c0 -7 14 -10 35 -7 19 2 35
0 35 -5 0 -5 6 -7 14 -4 8 3 16 2 18 -3 2 -5 17 -11 33 -14 17 -2 37 -6 46
-10 9 -4 28 -5 43 -2 14 3 24 1 21 -4 -3 -4 12 -11 33 -15 34 -5 39 -10 40
-34 0 -25 -2 -27 -24 -23 -14 3 -23 10 -21 17 8 18 -5 33 -33 36 -17 3 -25 -1
-25 -11 0 -8 -10 -16 -22 -18 -19 -3 -23 1 -23 22 0 16 -6 26 -15 26 -8 0 -15
-9 -15 -20 0 -21 -16 -26 -39 -11 -8 5 -11 16 -8 25 7 17 -1 23 -38 28 -16 2
-19 -2 -17 -20 3 -18 -1 -23 -15 -20 -11 2 -19 14 -21 31 -4 32 -22 36 -23 5
0 -23 0 -23 -10 1 -7 18 -6 27 3 33 18 11 28 10 28 -3z m-770 -8 c0 -4 -34
-11 -75 -13 -41 -3 -81 -11 -90 -18 -8 -7 -15 -8 -15 -3 0 17 43 33 100 36 30
2 61 4 68 5 6 1 12 -2 12 -7z m548 -37 c6 3 17 0 24 -8 14 -13 62 -32 64 -25
1 2 11 -4 22 -15 12 -10 32 -19 45 -20 14 0 23 -4 20 -8 -2 -5 3 -8 12 -8 8 0
38 -11 65 -25 30 -15 60 -24 75 -21 14 3 23 1 20 -3 -2 -5 10 -11 28 -14 158
-30 275 -48 351 -53 50 -4 98 -8 106 -10 8 -1 55 -3 104 -3 49 -1 87 -4 83 -7
-5 -5 -118 -5 -314 -1 -28 1 -50 4 -48 8 3 3 -13 5 -35 4 -22 -1 -40 2 -40 7
0 6 -18 7 -40 4 -23 -3 -40 -1 -40 4 0 5 -13 8 -30 6 -18 -2 -27 1 -23 7 4 6
-4 8 -21 5 -14 -3 -26 -1 -26 4 0 5 -8 8 -17 7 -10 -1 -31 3 -48 10 -16 6 -48
19 -70 27 -79 32 -86 34 -106 34 -11 0 -56 18 -101 40 -63 31 -84 37 -95 28
-10 -8 -17 -8 -26 2 -10 10 -8 12 7 6 13 -4 17 -2 13 8 -7 17 15 28 24 13 4
-5 11 -7 17 -3z m-233 -19 c23 -11 24 -13 6 -9 -13 3 -51 5 -85 4 -33 -2 -86
-3 -118 -4 -31 0 -55 -3 -53 -6 2 -3 -26 -6 -61 -7 -37 -1 -62 3 -58 8 3 5 16
9 30 9 13 0 24 3 24 8 0 4 64 8 143 10 109 1 149 -1 172 -13z m843 -21 c20 -2
78 -8 127 -13 50 -5 94 -7 99 -3 5 3 5 -1 0 -9 -5 -8 -7 -22 -6 -31 3 -14 -4
-18 -25 -18 -22 0 -25 2 -13 10 10 6 11 10 3 10 -7 0 -13 7 -13 15 0 8 -9 15
-20 15 -15 0 -20 -7 -20 -25 0 -26 -3 -28 -36 -19 -16 4 -20 11 -16 30 4 22 1
24 -37 24 -30 0 -39 -3 -35 -14 3 -8 1 -17 -4 -20 -16 -10 -42 5 -42 23 0 9
-6 23 -12 30 -11 11 -10 12 0 6 7 -4 30 -9 50 -11z m342 -40 c0 -2 -11 -4 -25
-4 -14 0 -25 4 -25 9 0 4 11 6 25 3 14 -2 25 -6 25 -8z m63 9 c-7 -2 -19 -2
-25 0 -7 3 -2 5 12 5 14 0 19 -2 13 -5z m-978 -48 c11 -1 49 -16 85 -33 36
-18 70 -32 76 -32 7 0 57 -18 112 -40 88 -35 122 -43 298 -66 150 -19 251 -26
409 -27 116 -1 190 -3 165 -5 -24 -2 -48 -9 -52 -15 -6 -9 -8 -9 -8 1 0 7 -4
11 -9 7 -18 -10 -350 -3 -400 9 -14 3 -64 8 -112 10 -73 5 -152 20 -264 54
-11 3 -31 11 -45 19 -14 7 -31 13 -39 13 -23 0 -135 43 -143 54 -4 6 -8 7 -8
2 0 -5 -6 -4 -12 1 -7 5 -20 9 -28 8 -16 0 -19 1 -60 36 -20 17 -21 19 -5 13
11 -4 29 -8 40 -9z m908 8 c-7 -2 -21 -2 -30 0 -10 3 -4 5 12 5 17 0 24 -2 18
-5z m-1423 -29 c-52 -6 -106 -14 -120 -19 -18 -5 -22 -4 -14 4 13 14 40 20
113 26 30 3 56 6 58 8 2 2 16 2 31 -2 18 -3 -4 -9 -68 -17z m273 -23 c10 -4
-33 -7 -95 -7 -94 0 -163 -6 -163 -14 0 -1 -14 -3 -32 -5 -18 -2 -57 -11 -87
-19 -62 -18 -69 -19 -62 -7 9 14 157 51 236 59 77 8 171 4 203 -7z m-15 -126
c4 -4 -11 -5 -33 -2 -22 2 -75 -2 -118 -10 -106 -19 -133 -12 -32 9 77 16 169
17 183 3z m337 -5 c3 -5 18 -10 33 -10 15 0 49 -11 75 -25 26 -14 52 -23 57
-20 6 3 10 2 10 -4 0 -5 9 -13 21 -16 11 -4 19 -8 17 -10 -3 -3 -48 11 -118
38 -8 3 -40 13 -70 22 -74 23 -93 34 -58 35 15 0 30 -4 33 -10z m-198 -72 c28
-27 58 -51 65 -52 7 -2 34 -6 60 -10 26 -5 53 -14 59 -22 8 -9 8 -14 1 -14 -6
0 -14 5 -17 10 -4 6 -10 8 -14 5 -23 -14 -111 24 -170 73 -34 29 -66 52 -72
52 -5 0 -9 7 -9 15 0 23 32 3 97 -57z m-207 -18 c0 -6 -7 -10 -15 -10 -8 0
-15 2 -15 4 0 2 -3 12 -7 21 -5 15 -3 16 15 6 12 -7 22 -16 22 -21z m476 4 c8
3 14 2 14 -3 0 -5 12 -11 28 -14 15 -3 80 -24 144 -45 134 -46 177 -52 431
-67 70 -4 130 -12 133 -16 5 -8 -38 -14 -61 -9 -14 3 -118 10 -200 13 -38 1
-76 6 -84 11 -11 7 -12 6 -6 -5 8 -12 6 -12 -8 0 -9 7 -17 11 -17 9 0 -3 -26
1 -57 9 -32 8 -71 16 -88 19 -16 3 -61 17 -100 31 -38 14 -78 25 -87 25 -10 0
-18 3 -18 7 0 5 -17 11 -38 15 -21 3 -47 15 -57 26 l-18 20 37 -15 c21 -9 45
-14 52 -11z m-536 -3 c0 -23 -36 -35 -44 -14 -10 26 -6 33 19 33 18 0 25 -5
25 -19z m-110 -27 c0 -2 -7 -4 -15 -4 -8 0 -15 4 -15 10 0 5 7 7 15 4 8 -4 15
-8 15 -10z m940 -9 c0 -2 -9 -3 -20 -2 -11 1 -20 7 -20 14 0 11 5 11 20 3 11
-6 20 -13 20 -15z m-625 5 c-4 -6 9 -17 29 -25 19 -8 41 -23 48 -33 17 -25 78
-53 117 -54 16 -1 28 -5 25 -10 -5 -8 14 -12 46 -10 8 0 18 -4 21 -10 4 -6 15
-12 26 -13 39 -4 93 -34 93 -53 0 -27 -9 -33 -31 -19 -13 8 -15 14 -7 24 13
16 11 18 -24 27 -21 5 -28 3 -28 -8 0 -21 -11 -25 -39 -15 -19 8 -21 12 -11
24 7 9 10 19 6 23 -4 4 -13 -1 -20 -11 -14 -18 -41 -23 -51 -8 -3 5 -1 12 5
16 17 11 11 23 -12 27 -13 2 -28 -3 -34 -11 -16 -21 -47 -6 -39 19 7 22 -5 26
-22 9 -8 -8 -17 -8 -32 0 -22 12 -29 31 -11 31 17 0 11 15 -12 29 -18 11 -22
11 -30 -3 -13 -24 -41 -8 -34 20 4 16 2 24 -6 24 -9 0 -8 3 2 10 20 13 33 13
25 0z m-380 -10 c-3 -5 -11 -10 -16 -10 -6 0 -7 5 -4 10 3 6 11 10 16 10 6 0
7 -4 4 -10z m1090 -5 l30 -15 -30 5 c-16 4 -38 6 -47 6 -10 0 -18 4 -18 10 0
13 30 10 65 -6z m95 -15 c0 -5 -9 -8 -19 -7 -15 1 -17 4 -9 14 11 13 28 9 28
-7z m-928 -18 c4 -4 -27 -7 -69 -6 -42 0 -116 -7 -165 -16 -59 -11 -87 -13
-85 -6 9 28 293 52 319 28z m971 11 c-7 -2 -19 -2 -25 0 -7 3 -2 5 12 5 14 0
19 -2 13 -5z m134 -9 c-3 -3 -12 -4 -19 -1 -8 3 -5 6 6 6 11 1 17 -2 13 -5z
m243 -2 c0 -5 -7 -9 -15 -9 -8 0 -15 4 -15 9 0 4 7 8 15 8 8 0 15 -4 15 -8z
m-1710 -23 c0 -11 -4 -18 -10 -14 -5 3 -7 12 -3 20 7 21 13 19 13 -6z m1947
-15 c-3 -3 -12 -4 -19 -1 -8 3 -5 6 6 6 11 1 17 -2 13 -5z m-39 -9 c-9 -10
-201 -34 -212 -27 -6 4 27 12 74 18 100 13 145 16 138 9z m-254 -23 c2 -4 -11
-6 -30 -4 -19 2 -34 6 -34 8 0 8 59 4 64 -4z m-1610 -38 c3 -8 2 -12 -4 -9 -6
3 -10 10 -10 16 0 14 7 11 14 -7z m460 -26 c-4 -6 -1 -9 7 -6 7 2 29 -6 48
-19 28 -19 64 -33 124 -49 4 -1 10 -3 15 -4 4 -1 10 -2 15 -1 4 0 7 -3 7 -8 0
-5 7 -12 16 -15 8 -3 12 -2 9 4 -3 6 1 7 9 4 9 -3 16 -10 16 -16 0 -5 10 -6
21 -3 16 5 19 4 14 -6 -6 -9 -3 -11 8 -6 10 3 17 2 17 -3 0 -5 7 -7 15 -4 8 4
15 1 15 -5 0 -6 7 -8 15 -5 8 4 15 1 15 -6 0 -6 5 -8 10 -5 6 3 10 0 10 -7 0
-10 2 -10 9 1 7 11 10 10 18 -4 6 -10 23 -18 41 -18 16 -1 28 -5 26 -8 -6 -10
45 -21 58 -13 6 4 8 3 4 -4 -3 -6 6 -13 24 -17 31 -7 47 -22 35 -33 -3 -3 -10
0 -15 7 -4 8 -15 11 -24 8 -9 -4 -16 -3 -16 2 0 5 -12 9 -27 9 -15 0 -29 5
-31 11 -2 6 -8 9 -12 6 -13 -8 -61 6 -55 15 3 5 -5 6 -17 2 -16 -4 -19 -2 -13
8 5 9 4 11 -3 6 -15 -9 -93 14 -86 25 3 5 -1 6 -9 3 -7 -2 -36 5 -63 17 -27
12 -51 23 -54 24 -48 12 -234 94 -215 95 6 0 3 5 -5 10 -11 7 -11 10 -2 10 7
0 10 4 7 10 -3 6 1 7 9 4 9 -3 13 -11 10 -16z m593 -16 c55 -21 179 -43 273
-49 52 -2 102 -9 110 -15 10 -6 -20 -7 -90 -3 -117 6 -127 7 -255 35 -49 10
-107 22 -127 25 -21 3 -40 10 -43 14 -7 12 98 6 132 -7z m-149 -40 c2 -7 -6
-12 -17 -12 -21 0 -27 11 -14 24 9 9 26 2 31 -12z m1062 -2 c0 -5 -7 -10 -15
-10 -8 0 -15 5 -15 10 0 6 7 10 15 10 8 0 15 -4 15 -10z m-44 -7 c-13 -13
-316 -27 -316 -14 0 5 19 8 43 7 23 -1 69 0 102 3 96 9 178 11 171 4z m-341
-17 c11 -2 -13 -4 -53 -5 -40 0 -71 2 -68 7 4 7 73 6 121 -2z m-412 -60 c23
-4 37 -3 37 4 0 11 22 10 31 -2 3 -5 40 -10 82 -12 42 -3 82 -8 87 -11 6 -3
10 -2 10 3 0 10 67 8 77 -2 9 -9 53 -8 53 2 0 4 34 7 75 7 41 0 75 -3 75 -7 0
-5 33 -9 73 -10 55 -1 61 -2 25 -5 -40 -3 -48 -8 -48 -24 0 -21 -19 -27 -21
-6 0 10 -2 10 -6 0 -8 -21 -22 -15 -18 7 3 13 -2 20 -13 21 -9 0 -25 2 -34 4
-13 2 -18 -3 -18 -21 0 -21 -5 -24 -34 -24 -30 0 -33 2 -28 25 3 20 1 24 -11
19 -9 -3 -17 -15 -19 -27 -5 -33 -51 -30 -58 3 -3 14 -11 25 -17 24 -7 -1 -21
-2 -32 -3 -11 -1 -18 -8 -17 -18 1 -13 -8 -19 -31 -21 -30 -3 -33 -1 -33 22 0
16 -6 26 -15 26 -9 0 -15 -9 -15 -25 0 -17 -5 -25 -17 -25 -30 0 -46 16 -40
39 5 19 1 21 -33 21 -34 0 -37 -2 -33 -21 5 -18 2 -20 -23 -17 -16 2 -30 9
-30 16 -1 6 -2 17 -3 22 0 6 -16 10 -35 10 -19 0 -38 5 -42 11 -5 9 1 10 20 5
18 -4 26 -2 26 6 0 9 3 10 8 2 4 -6 24 -14 45 -18z m-48 -26 c8 -13 -15 -13
-35 0 -12 8 -11 10 7 10 12 0 25 -4 28 -10z m1092 -76 c-3 -3 -12 -4 -19 -1
-8 3 -5 6 6 6 11 1 17 -2 13 -5z m-1087 -12 c0 -5 -7 -9 -15 -9 -8 0 -15 4
-15 9 0 4 7 8 15 8 8 0 15 -4 15 -8z m1020 -3 c-19 -5 -55 -12 -80 -15 -25 -3
-52 -7 -60 -10 -8 -3 -33 -8 -55 -10 -174 -22 -261 -30 -270 -25 -5 3 17 9 50
12 127 14 170 22 184 33 12 9 13 8 7 -3 -6 -10 -4 -12 10 -8 11 3 55 11 98 17
44 6 82 12 84 15 3 3 19 5 36 4 l31 -1 -35 -9z m-980 -9 c0 -5 -7 -10 -15 -10
-8 0 -15 5 -15 10 0 6 7 10 15 10 8 0 15 -4 15 -10z m50 -21 c0 -6 -4 -7 -10
-4 -5 3 -10 11 -10 16 0 6 5 7 10 4 6 -3 10 -11 10 -16z m70 -8 c0 -10 -26 -9
-36 2 -4 4 2 7 14 7 12 0 22 -4 22 -9z m40 -11 c0 -5 -4 -10 -9 -10 -6 0 -13
5 -16 10 -3 6 1 10 9 10 9 0 16 -4 16 -10z m30 -10 c0 -5 -2 -10 -4 -10 -3 0
-8 5 -11 10 -3 6 -1 10 4 10 6 0 11 -4 11 -10z m122 -1 c31 -2 55 -5 53 -9 -7
-12 -146 -3 -159 10 -8 9 -4 11 19 6 17 -3 56 -6 87 -7z m128 -3 c0 -2 -7 -7
-16 -10 -8 -3 -12 -2 -9 4 6 10 25 14 25 6z m-1563 -43 c-3 -10 -5 -4 -5 12 0
17 2 24 5 18 2 -7 2 -21 0 -30z m393 -13 c-6 -11 -8 -25 -5 -30 7 -11 -14 -55
-22 -47 -2 3 0 15 7 26 6 12 8 21 6 21 -3 0 -13 -15 -22 -32 -10 -18 -19 -28
-21 -21 -2 6 3 26 12 43 9 17 13 35 10 39 -5 10 10 19 33 20 10 1 10 -4 2 -19z
m1953 -47 c5 -26 1 -45 -10 -63 -49 -75 -201 -182 -343 -241 -36 -16 -124 -39
-195 -53 -72 -14 -163 -33 -203 -42 -41 -9 -77 -12 -81 -8 -9 10 -63 186 -59
190 8 8 137 19 163 14 28 -5 29 -6 10 -18 -25 -15 -6 -15 53 -2 48 11 95 18
131 19 13 1 21 4 18 8 -4 3 -34 5 -68 4 -56 -2 -60 0 -45 14 24 24 104 45 176
45 57 0 75 6 145 43 44 24 113 53 154 66 41 13 89 32 105 42 41 25 42 25 49
-18z m-1588 -58 c55 -18 152 -41 215 -50 140 -21 147 -22 185 -25 l30 -2 -29
-12 c-20 -9 -25 -15 -15 -19 11 -4 10 -6 -2 -6 -25 -1 -32 -41 -8 -41 21 0 27
19 7 21 -7 1 3 4 23 8 43 9 156 7 219 -2 31 -5 39 -4 25 2 -19 9 -19 10 4 10
23 1 24 0 16 -56 -4 -32 -7 -73 -6 -91 2 -51 -26 -58 -151 -37 -179 30 -470
137 -584 216 -47 32 -164 147 -164 161 0 4 30 -4 68 -18 37 -14 112 -41 167
-59z m-605 51 c0 -10 -7 -12 -22 -8 -21 5 -21 6 -2 13 10 4 20 8 22 8 1 1 2
-5 2 -13z m54 -81 c13 -19 13 -23 2 -19 -8 3 -16 14 -19 25 -7 25 -3 24 17 -6z
m94 -80 c-6 -14 -13 -23 -15 -21 -5 5 15 46 22 46 3 0 -1 -11 -7 -25z m1159
-27 c-3 -8 -6 -5 -6 6 -1 11 2 17 5 13 3 -3 4 -12 1 -19z m-1057 -263 c0 -5
-5 -3 -10 5 -5 8 -10 20 -10 25 0 6 5 3 10 -5 5 -8 10 -19 10 -25z"/>
<path d="M4958 2823 c-28 -7 -21 -21 7 -15 14 2 22 8 19 13 -3 5 -6 8 -7 8 -1
-1 -10 -3 -19 -6z"/>
<path d="M5210 2620 c-11 -7 -7 -10 17 -10 17 0 35 5 38 10 8 13 -35 13 -55 0z"/>
<path d="M5376 2578 c4 -6 0 -14 -7 -19 -10 -6 -9 -8 6 -7 11 0 26 -1 34 -3
28 -8 20 17 -9 28 -19 7 -28 8 -24 1z"/>
<path d="M5448 2543 c7 -3 16 -2 19 1 4 3 -2 6 -13 5 -11 0 -14 -3 -6 -6z"/>
<path d="M6876 635 c-11 -8 -15 -15 -9 -15 6 0 16 7 23 15 16 19 11 19 -14 0z"/>
<path d="M6733 512 c-18 -9 -34 -22 -37 -29 -5 -13 60 23 70 38 7 11 6 11 -33
-9z"/>
<path d="M6600 459 c-19 -10 -29 -19 -22 -19 7 0 29 9 49 20 21 11 31 20 23
19 -8 0 -31 -9 -50 -20z"/>
<path d="M5435 521 c17 -10 77 -35 135 -55 58 -20 117 -43 131 -51 35 -19 86
-38 74 -28 -44 38 -89 63 -125 69 -30 5 -38 9 -28 16 10 8 10 9 -2 5 -8 -2
-26 0 -40 6 -14 5 -29 11 -35 12 -33 5 -106 29 -111 36 -3 5 -11 9 -17 9 -7 0
2 -9 18 -19z"/>
<path d="M5856 384 c-18 -12 -16 -13 17 -12 42 1 44 3 19 17 -12 6 -23 5 -36
-5z"/>
<path d="M5853 4938 c-36 -18 -27 -23 29 -19 29 2 84 -2 121 -9 38 -7 70 -10
73 -7 3 2 -8 12 -23 22 -34 22 -166 31 -200 13z"/>
<path d="M5660 4624 c0 -10 5 -26 10 -34 8 -11 9 -7 4 15 -8 37 -14 45 -14 19z"/>
<path d="M5642 4580 c0 -14 2 -19 5 -12 2 6 2 18 0 25 -3 6 -5 1 -5 -13z"/>
<path d="M5661 4501 c20 -31 39 -38 39 -15 0 9 -3 14 -7 11 -3 -4 -16 1 -27
10 -20 18 -20 18 -5 -6z"/>
<path d="M5895 3825 c17 -14 39 -31 50 -37 18 -10 18 -9 7 5 -8 9 -30 25 -50
37 l-37 20 30 -25z"/>
<path d="M8512 3660 c0 -14 2 -19 5 -12 2 6 2 18 0 25 -3 6 -5 1 -5 -13z"/>
<path d="M7461 2630 c-1 -8 -4 -26 -7 -40 -5 -19 -4 -22 5 -14 7 6 11 24 8 40
-2 16 -5 22 -6 14z"/>
<path d="M4581 952 c-7 -13 -6 -19 2 -19 7 0 13 9 13 19 0 10 -1 18 -3 18 -1
0 -7 -8 -12 -18z"/>
<path d="M4585 900 c-4 -11 -11 -18 -16 -15 -5 3 -6 -1 -3 -9 11 -28 34 -18
34 14 0 35 -6 39 -15 10z"/>
<path d="M4720 870 c0 -5 7 -7 15 -4 8 4 15 8 15 10 0 2 -7 4 -15 4 -8 0 -15
-4 -15 -10z"/>
<path d="M4601 834 c0 -11 3 -14 6 -6 3 7 2 16 -1 19 -3 4 -6 -2 -5 -13z"/>
<path d="M4646 824 c-9 -23 -7 -27 8 -21 9 4 25 -8 41 -29 15 -20 29 -33 32
-30 3 2 -4 15 -16 27 -11 12 -23 30 -26 40 -8 23 -32 31 -39 13z"/>
<path d="M4720 791 c0 -5 7 -12 16 -15 14 -5 15 -4 4 9 -14 17 -20 19 -20 6z"/>
<path d="M4790 769 c0 -5 5 -7 10 -4 6 3 10 8 10 11 0 2 -4 4 -10 4 -5 0 -10
-5 -10 -11z"/>
<path d="M4675 750 c3 -5 8 -10 11 -10 2 0 4 5 4 10 0 6 -5 10 -11 10 -5 0 -7
-4 -4 -10z"/>
<path d="M720 520 l0 -40 40 0 40 0 0 40 0 40 -40 0 -40 0 0 -40z"/>
<path d="M800 360 l0 -40 40 0 40 0 0 -40 0 -40 40 0 40 0 0 -40 0 -40 40 0
40 0 0 -40 0 -40 40 0 40 0 0 -40 0 -40 40 0 c33 0 40 3 40 20 0 13 -7 20 -20
20 -13 0 -20 7 -20 20 0 13 -7 20 -20 20 -17 0 -20 7 -20 40 l0 40 -40 0 -40
0 0 40 0 40 -40 0 -40 0 0 40 0 40 -40 0 -40 0 0 40 0 40 -40 0 -40 0 0 -40z"/>
</g>
</svg>
